<mxfile host="app.diagrams.net" modified="2021-12-07T18:00:00.474Z" agent="5.0 (Windows NT 10.0; Win64; x64) AppleWebKit/537.36 (KHTML, like Gecko) Chrome/96.0.4664.45 Safari/537.36" etag="J_ijIlR9wiBhG6dhCbiD" version="15.7.2" type="github" pages="4">
  <diagram id="8U6ZnmNh8exRSaDuMtKA" name="Base Game Timing">
    <mxGraphModel dx="2272" dy="762" grid="1" gridSize="10" guides="1" tooltips="1" connect="1" arrows="1" fold="1" page="1" pageScale="1" pageWidth="850" pageHeight="1100" background="#114B5F" math="0" shadow="0">
      <root>
        <mxCell id="0" />
        <mxCell id="1" parent="0" />
        <mxCell id="ncUc4xT5pUTNHPfTYMXm-4" value="" style="edgeStyle=orthogonalEdgeStyle;orthogonalLoop=1;jettySize=auto;html=1;fontColor=#E4FDE1;strokeColor=#028090;fillColor=#F45B69;shape=flexArrow;labelBackgroundColor=#114B5F;" parent="1" source="ncUc4xT5pUTNHPfTYMXm-2" target="ncUc4xT5pUTNHPfTYMXm-3" edge="1">
          <mxGeometry relative="1" as="geometry" />
        </mxCell>
        <UserObject label="&lt;b style=&quot;font-size: 21px&quot;&gt;Setup&lt;/b&gt;&lt;br&gt;&lt;div&gt;&lt;ul&gt;&lt;li style=&quot;text-align: left&quot;&gt;Present Leader Cards&lt;/li&gt;&lt;li style=&quot;text-align: left&quot;&gt;Shuffle/Place Decks&lt;/li&gt;&lt;li style=&quot;text-align: left&quot;&gt;Decide who goes first&lt;/li&gt;&lt;li style=&quot;text-align: left&quot;&gt;Draw 6 cards&lt;/li&gt;&lt;li style=&quot;text-align: left&quot;&gt;Mulligan&lt;/li&gt;&lt;li style=&quot;text-align: left&quot;&gt;Place 8 cards in life&amp;nbsp;&lt;/li&gt;&lt;/ul&gt;&lt;/div&gt;" link="data:page/id,Diw7MWGEJOFJjZEXb5YK" id="ncUc4xT5pUTNHPfTYMXm-2">
          <mxCell style="whiteSpace=wrap;html=1;fontColor=#E4FDE1;strokeColor=#028090;fillColor=#F45B69;align=center;rounded=1;" parent="1" vertex="1">
            <mxGeometry x="-10" y="180" width="210" height="150" as="geometry" />
          </mxCell>
        </UserObject>
        <mxCell id="iWEUwf4UZTC7-gsxewFT-3" style="edgeStyle=orthogonalEdgeStyle;orthogonalLoop=1;jettySize=auto;html=1;endArrow=none;endFill=0;strokeColor=#028090;fontColor=#E4FDE1;labelBackgroundColor=#114B5F;" parent="1" source="iWEUwf4UZTC7-gsxewFT-2" target="ncUc4xT5pUTNHPfTYMXm-2" edge="1">
          <mxGeometry relative="1" as="geometry" />
        </mxCell>
        <UserObject label="&lt;font size=&quot;1&quot;&gt;&lt;b style=&quot;font-size: 24px&quot;&gt;Deck&lt;/b&gt;&lt;/font&gt;&lt;br&gt;&lt;ul&gt;&lt;li style=&quot;text-align: left&quot;&gt;1 Leader Card&lt;/li&gt;&lt;li style=&quot;text-align: left&quot;&gt;50-60 cards&lt;/li&gt;&lt;li style=&quot;text-align: left&quot;&gt;Up to 4 total cards with [Super Combo]&lt;/li&gt;&lt;li style=&quot;text-align: left&quot;&gt;Up to 1 total cards with [Ultimate]&lt;/li&gt;&lt;/ul&gt;" id="iWEUwf4UZTC7-gsxewFT-2">
          <mxCell style="whiteSpace=wrap;html=1;fontColor=#E4FDE1;strokeColor=#028090;fillColor=#F45B69;align=center;rounded=1;" parent="1" vertex="1">
            <mxGeometry x="-40" y="20" width="270" height="120" as="geometry" />
          </mxCell>
        </UserObject>
        <mxCell id="iWEUwf4UZTC7-gsxewFT-4" value="Turn Flow" style="swimlane;fillColor=#F45B69;strokeColor=#028090;fontColor=#E4FDE1;rounded=1;strokeWidth=5;" parent="1" vertex="1">
          <mxGeometry x="280" y="170" width="420" height="390" as="geometry" />
        </mxCell>
        <mxCell id="iWEUwf4UZTC7-gsxewFT-5" value="" style="edgeStyle=orthogonalEdgeStyle;shape=flexArrow;orthogonalLoop=1;jettySize=auto;html=1;endArrow=block;endFill=0;strokeColor=#028090;fontColor=#E4FDE1;fillColor=#F45B69;labelBackgroundColor=#114B5F;" parent="iWEUwf4UZTC7-gsxewFT-4" source="ncUc4xT5pUTNHPfTYMXm-3" target="ncUc4xT5pUTNHPfTYMXm-5" edge="1">
          <mxGeometry relative="1" as="geometry" />
        </mxCell>
        <mxCell id="ncUc4xT5pUTNHPfTYMXm-3" value="&lt;b&gt;&lt;font style=&quot;font-size: 16px&quot;&gt;Charge Phase&lt;/font&gt;&lt;/b&gt;&lt;br&gt;&lt;br&gt;&lt;div&gt;&lt;ul&gt;&lt;li style=&quot;text-align: left&quot;&gt;Switch all cards in rest mode to active mode&lt;/li&gt;&lt;li style=&quot;text-align: left&quot;&gt;turn player draw 1 card&lt;/li&gt;&lt;li style=&quot;text-align: left&quot;&gt;Charge up to 1 energy&lt;/li&gt;&lt;/ul&gt;&lt;/div&gt;" style="whiteSpace=wrap;html=1;fontColor=#E4FDE1;strokeColor=#028090;fillColor=#F45B69;rounded=1;" parent="iWEUwf4UZTC7-gsxewFT-4" vertex="1">
          <mxGeometry x="65" y="32.5" width="290" height="105" as="geometry" />
        </mxCell>
        <mxCell id="ncUc4xT5pUTNHPfTYMXm-7" value="End Phase" style="whiteSpace=wrap;html=1;fontColor=#E4FDE1;strokeColor=#028090;fillColor=#F45B69;rounded=1;" parent="iWEUwf4UZTC7-gsxewFT-4" vertex="1">
          <mxGeometry x="150" y="330" width="120" height="60" as="geometry" />
        </mxCell>
        <mxCell id="ncUc4xT5pUTNHPfTYMXm-5" value="Main Phase" style="whiteSpace=wrap;html=1;fontColor=#E4FDE1;strokeColor=#028090;fillColor=#F45B69;rounded=1;" parent="iWEUwf4UZTC7-gsxewFT-4" vertex="1">
          <mxGeometry x="150" y="200" width="120" height="60" as="geometry" />
        </mxCell>
      </root>
    </mxGraphModel>
  </diagram>
  <diagram id="Diw7MWGEJOFJjZEXb5YK" name="Setup Phase">
    <mxGraphModel dx="1422" dy="762" grid="1" gridSize="10" guides="1" tooltips="1" connect="1" arrows="1" fold="1" page="1" pageScale="1" pageWidth="850" pageHeight="1100" background="#114B5F" math="0" shadow="0">
      <root>
        <mxCell id="qfcJfHz-gk92rwK0EIHv-0" />
        <mxCell id="qfcJfHz-gk92rwK0EIHv-1" parent="qfcJfHz-gk92rwK0EIHv-0" />
        <mxCell id="PTkMI5Fb_Anu1UWqGTLA-1" value="" style="edgeStyle=orthogonalEdgeStyle;curved=0;rounded=1;sketch=0;orthogonalLoop=1;jettySize=auto;html=1;fontColor=#E4FDE1;strokeColor=#028090;fillColor=#F45B69;" parent="qfcJfHz-gk92rwK0EIHv-1" source="qfcJfHz-gk92rwK0EIHv-2" target="PTkMI5Fb_Anu1UWqGTLA-0" edge="1">
          <mxGeometry relative="1" as="geometry" />
        </mxCell>
        <mxCell id="qfcJfHz-gk92rwK0EIHv-2" value="START" style="rounded=0;whiteSpace=wrap;html=1;sketch=0;fontColor=#E4FDE1;strokeColor=#028090;fillColor=#F45B69;" parent="qfcJfHz-gk92rwK0EIHv-1" vertex="1">
          <mxGeometry x="365" y="40" width="120" height="60" as="geometry" />
        </mxCell>
        <mxCell id="PTkMI5Fb_Anu1UWqGTLA-3" value="" style="edgeStyle=orthogonalEdgeStyle;curved=0;rounded=1;sketch=0;orthogonalLoop=1;jettySize=auto;html=1;fontColor=#E4FDE1;strokeColor=#028090;fillColor=#F45B69;" parent="qfcJfHz-gk92rwK0EIHv-1" source="PTkMI5Fb_Anu1UWqGTLA-0" target="PTkMI5Fb_Anu1UWqGTLA-2" edge="1">
          <mxGeometry relative="1" as="geometry" />
        </mxCell>
        <mxCell id="PTkMI5Fb_Anu1UWqGTLA-0" value="Players present the Leader Card and deck they are going to use this game. &lt;br&gt;&lt;br&gt;The deck (at this timing) must fulfill the deck construction rules" style="rounded=0;whiteSpace=wrap;html=1;sketch=0;fontColor=#E4FDE1;strokeColor=#028090;fillColor=#F45B69;" parent="qfcJfHz-gk92rwK0EIHv-1" vertex="1">
          <mxGeometry x="332" y="150" width="185" height="130" as="geometry" />
        </mxCell>
        <mxCell id="PTkMI5Fb_Anu1UWqGTLA-5" value="&lt;br&gt;&lt;br&gt;&lt;span style=&quot;color: rgb(228 , 253 , 225) ; font-family: &amp;quot;helvetica&amp;quot; ; font-size: 12px ; font-style: normal ; font-weight: 400 ; letter-spacing: normal ; text-align: center ; text-indent: 0px ; text-transform: none ; word-spacing: 0px ; display: inline ; float: none&quot;&gt;Trigger&lt;/span&gt;&lt;br&gt;" style="edgeStyle=orthogonalEdgeStyle;sketch=0;orthogonalLoop=1;jettySize=auto;html=1;fontColor=#E4FDE1;strokeColor=#028090;fillColor=#F45B69;rounded=1;dashed=1;labelBackgroundColor=none;" parent="qfcJfHz-gk92rwK0EIHv-1" source="PTkMI5Fb_Anu1UWqGTLA-2" target="PTkMI5Fb_Anu1UWqGTLA-4" edge="1">
          <mxGeometry x="-0.2683" y="20" relative="1" as="geometry">
            <Array as="points">
              <mxPoint x="425" y="480" />
            </Array>
            <mxPoint as="offset" />
          </mxGeometry>
        </mxCell>
        <mxCell id="PTkMI5Fb_Anu1UWqGTLA-7" value="" style="edgeStyle=orthogonalEdgeStyle;curved=0;rounded=1;sketch=0;orthogonalLoop=1;jettySize=auto;html=1;fontColor=#E4FDE1;strokeColor=#028090;fillColor=#F45B69;" parent="qfcJfHz-gk92rwK0EIHv-1" source="PTkMI5Fb_Anu1UWqGTLA-2" target="PTkMI5Fb_Anu1UWqGTLA-6" edge="1">
          <mxGeometry relative="1" as="geometry" />
        </mxCell>
        <mxCell id="PTkMI5Fb_Anu1UWqGTLA-2" value="Each player places their Leader Card with its front side&lt;br/&gt;facing up in the Leader Area." style="rounded=0;whiteSpace=wrap;html=1;sketch=0;fontColor=#E4FDE1;strokeColor=#028090;fillColor=#F45B69;" parent="qfcJfHz-gk92rwK0EIHv-1" vertex="1">
          <mxGeometry x="341" y="360" width="168" height="90" as="geometry" />
        </mxCell>
        <mxCell id="PTkMI5Fb_Anu1UWqGTLA-4" value="“When this card is placed in&lt;br&gt;the Leader Area”" style="html=1;shadow=0;dashed=0;align=center;verticalAlign=middle;shape=mxgraph.arrows2.calloutArrow;dy=10;dx=20;notch=190;arrowHead=10;fontFamily=Helvetica;fontSize=12;fontColor=#E4FDE1;strokeColor=#028090;fillColor=#F45B69;sketch=0;" parent="qfcJfHz-gk92rwK0EIHv-1" vertex="1">
          <mxGeometry x="600" y="425" width="220" height="105" as="geometry" />
        </mxCell>
        <mxCell id="kfX9cUICfM7tbNY18-MQ-3" value="" style="edgeStyle=orthogonalEdgeStyle;rounded=1;orthogonalLoop=1;jettySize=auto;html=1;labelBackgroundColor=none;fontColor=#99FF33;strokeColor=#FFB570;" edge="1" parent="qfcJfHz-gk92rwK0EIHv-1" source="PTkMI5Fb_Anu1UWqGTLA-6" target="kfX9cUICfM7tbNY18-MQ-2">
          <mxGeometry relative="1" as="geometry" />
        </mxCell>
        <mxCell id="PTkMI5Fb_Anu1UWqGTLA-6" value="&lt;a href=&quot;data:page/id,3pNS6CPOeMwr3DZdlzzK&quot;&gt;Checkpoint&lt;/a&gt;" style="rounded=0;whiteSpace=wrap;html=1;sketch=0;fontColor=#E4FDE1;strokeColor=#028090;fillColor=#F45B69;" parent="qfcJfHz-gk92rwK0EIHv-1" vertex="1">
          <mxGeometry x="341" y="530" width="168" height="90" as="geometry" />
        </mxCell>
        <mxCell id="kfX9cUICfM7tbNY18-MQ-5" value="" style="edgeStyle=orthogonalEdgeStyle;rounded=1;orthogonalLoop=1;jettySize=auto;html=1;labelBackgroundColor=none;fontColor=#99FF33;strokeColor=#FFB570;" edge="1" parent="qfcJfHz-gk92rwK0EIHv-1" source="kfX9cUICfM7tbNY18-MQ-2" target="kfX9cUICfM7tbNY18-MQ-4">
          <mxGeometry relative="1" as="geometry" />
        </mxCell>
        <mxCell id="kfX9cUICfM7tbNY18-MQ-2" value="Each Player shuffles their deck." style="whiteSpace=wrap;html=1;rounded=0;fontColor=#E4FDE1;strokeColor=#028090;fillColor=#F45B69;sketch=0;" vertex="1" parent="qfcJfHz-gk92rwK0EIHv-1">
          <mxGeometry x="365.51" y="670" width="120" height="60" as="geometry" />
        </mxCell>
        <mxCell id="kfX9cUICfM7tbNY18-MQ-7" value="" style="edgeStyle=orthogonalEdgeStyle;rounded=1;orthogonalLoop=1;jettySize=auto;html=1;labelBackgroundColor=none;fontColor=#99FF33;strokeColor=#FFB570;" edge="1" parent="qfcJfHz-gk92rwK0EIHv-1" source="kfX9cUICfM7tbNY18-MQ-4" target="kfX9cUICfM7tbNY18-MQ-6">
          <mxGeometry relative="1" as="geometry" />
        </mxCell>
        <mxCell id="kfX9cUICfM7tbNY18-MQ-4" value="Each Player places their deck in the Deck Area face down." style="whiteSpace=wrap;html=1;rounded=0;fontColor=#E4FDE1;strokeColor=#028090;fillColor=#F45B69;sketch=0;" vertex="1" parent="qfcJfHz-gk92rwK0EIHv-1">
          <mxGeometry x="323.01" y="800" width="205" height="60" as="geometry" />
        </mxCell>
        <mxCell id="kfX9cUICfM7tbNY18-MQ-9" value="" style="edgeStyle=orthogonalEdgeStyle;rounded=1;orthogonalLoop=1;jettySize=auto;html=1;labelBackgroundColor=none;fontColor=#99FF33;strokeColor=#FFB570;" edge="1" parent="qfcJfHz-gk92rwK0EIHv-1" source="kfX9cUICfM7tbNY18-MQ-6" target="kfX9cUICfM7tbNY18-MQ-8">
          <mxGeometry relative="1" as="geometry" />
        </mxCell>
        <mxCell id="kfX9cUICfM7tbNY18-MQ-6" value="&lt;br&gt;Choose who goes first with the following Criteria:&lt;br&gt;&lt;br&gt;&lt;ul&gt;&lt;li style=&quot;text-align: left&quot;&gt;Cannot be&amp;nbsp; anyway a conscious choice&lt;/li&gt;&lt;li style=&quot;text-align: left&quot;&gt;A player even if chosen randomly, cannot have a choice on whether they play first or not.&lt;/li&gt;&lt;/ul&gt;" style="whiteSpace=wrap;html=1;rounded=0;fontColor=#E4FDE1;strokeColor=#028090;fillColor=#F45B69;sketch=0;" vertex="1" parent="qfcJfHz-gk92rwK0EIHv-1">
          <mxGeometry x="165.37" y="920" width="518.25" height="140" as="geometry" />
        </mxCell>
        <mxCell id="kfX9cUICfM7tbNY18-MQ-8" value="" style="whiteSpace=wrap;html=1;rounded=0;fontColor=#E4FDE1;strokeColor=#028090;fillColor=#F45B69;sketch=0;" vertex="1" parent="qfcJfHz-gk92rwK0EIHv-1">
          <mxGeometry x="364.495" y="1120" width="120" height="60" as="geometry" />
        </mxCell>
      </root>
    </mxGraphModel>
  </diagram>
  <diagram id="3pNS6CPOeMwr3DZdlzzK" name="Checkpoint-General">
    <mxGraphModel dx="1422" dy="762" grid="1" gridSize="10" guides="1" tooltips="1" connect="1" arrows="1" fold="1" page="1" pageScale="1" pageWidth="850" pageHeight="1100" background="#114B5F" math="0" shadow="0">
      <root>
        <mxCell id="cnh2NbTqDvx0SDtHo7SD-0" />
        <mxCell id="cnh2NbTqDvx0SDtHo7SD-1" parent="cnh2NbTqDvx0SDtHo7SD-0" />
        <mxCell id="adhHBQ6b8qDmUBTLGJpx-3" value="" style="edgeStyle=orthogonalEdgeStyle;curved=0;rounded=1;sketch=0;orthogonalLoop=1;jettySize=auto;html=1;fontColor=#E4FDE1;strokeColor=#028090;fillColor=#F45B69;" parent="cnh2NbTqDvx0SDtHo7SD-1" source="adhHBQ6b8qDmUBTLGJpx-1" target="adhHBQ6b8qDmUBTLGJpx-2" edge="1">
          <mxGeometry relative="1" as="geometry" />
        </mxCell>
        <mxCell id="adhHBQ6b8qDmUBTLGJpx-1" value="Start" style="rounded=0;whiteSpace=wrap;html=1;sketch=0;fontColor=#E4FDE1;strokeColor=#028090;fillColor=#F45B69;" parent="cnh2NbTqDvx0SDtHo7SD-1" vertex="1">
          <mxGeometry x="365" y="30" width="120" height="60" as="geometry" />
        </mxCell>
        <mxCell id="adhHBQ6b8qDmUBTLGJpx-5" value="" style="edgeStyle=orthogonalEdgeStyle;curved=0;rounded=1;sketch=0;orthogonalLoop=1;jettySize=auto;html=1;fontColor=#E4FDE1;strokeColor=#028090;fillColor=#F45B69;" parent="cnh2NbTqDvx0SDtHo7SD-1" source="adhHBQ6b8qDmUBTLGJpx-2" target="adhHBQ6b8qDmUBTLGJpx-4" edge="1">
          <mxGeometry relative="1" as="geometry" />
        </mxCell>
        <mxCell id="adhHBQ6b8qDmUBTLGJpx-2" value="Resolve all pending Confirmative Rules Processing" style="whiteSpace=wrap;html=1;rounded=0;fontColor=#E4FDE1;strokeColor=#028090;fillColor=#F45B69;sketch=0;" parent="cnh2NbTqDvx0SDtHo7SD-1" vertex="1">
          <mxGeometry x="365" y="170" width="120" height="60" as="geometry" />
        </mxCell>
        <mxCell id="adhHBQ6b8qDmUBTLGJpx-7" value="" style="edgeStyle=orthogonalEdgeStyle;curved=0;rounded=1;sketch=0;orthogonalLoop=1;jettySize=auto;html=1;fontColor=#E4FDE1;strokeColor=#028090;fillColor=#F45B69;" parent="cnh2NbTqDvx0SDtHo7SD-1" source="adhHBQ6b8qDmUBTLGJpx-4" target="adhHBQ6b8qDmUBTLGJpx-6" edge="1">
          <mxGeometry relative="1" as="geometry" />
        </mxCell>
        <mxCell id="adhHBQ6b8qDmUBTLGJpx-4" value="Resolve all pending Confirmative Rules Processing" style="whiteSpace=wrap;html=1;rounded=0;fontColor=#E4FDE1;strokeColor=#028090;fillColor=#F45B69;sketch=0;" parent="cnh2NbTqDvx0SDtHo7SD-1" vertex="1">
          <mxGeometry x="365" y="310" width="120" height="60" as="geometry" />
        </mxCell>
        <mxCell id="adhHBQ6b8qDmUBTLGJpx-9" value="" style="edgeStyle=orthogonalEdgeStyle;curved=0;rounded=1;sketch=0;orthogonalLoop=1;jettySize=auto;html=1;fontColor=#E4FDE1;strokeColor=#028090;fillColor=#F45B69;" parent="cnh2NbTqDvx0SDtHo7SD-1" source="adhHBQ6b8qDmUBTLGJpx-6" target="adhHBQ6b8qDmUBTLGJpx-8" edge="1">
          <mxGeometry relative="1" as="geometry" />
        </mxCell>
        <mxCell id="adhHBQ6b8qDmUBTLGJpx-6" value="Turn Player Activates and resolves any pending auto&#39;s" style="whiteSpace=wrap;html=1;rounded=0;fontColor=#E4FDE1;strokeColor=#028090;fillColor=#F45B69;sketch=0;" parent="cnh2NbTqDvx0SDtHo7SD-1" vertex="1">
          <mxGeometry x="365" y="450" width="120" height="60" as="geometry" />
        </mxCell>
        <mxCell id="adhHBQ6b8qDmUBTLGJpx-11" value="" style="edgeStyle=orthogonalEdgeStyle;curved=0;rounded=1;sketch=0;orthogonalLoop=1;jettySize=auto;html=1;fontColor=#E4FDE1;strokeColor=#028090;fillColor=#F45B69;" parent="cnh2NbTqDvx0SDtHo7SD-1" source="adhHBQ6b8qDmUBTLGJpx-8" target="adhHBQ6b8qDmUBTLGJpx-10" edge="1">
          <mxGeometry relative="1" as="geometry" />
        </mxCell>
        <mxCell id="adhHBQ6b8qDmUBTLGJpx-8" value="Non-Turn Player Activates and resolves any pending auto&#39;s" style="whiteSpace=wrap;html=1;rounded=0;fontColor=#E4FDE1;strokeColor=#028090;fillColor=#F45B69;sketch=0;" parent="cnh2NbTqDvx0SDtHo7SD-1" vertex="1">
          <mxGeometry x="365" y="590" width="120" height="60" as="geometry" />
        </mxCell>
        <mxCell id="adhHBQ6b8qDmUBTLGJpx-10" value="End" style="whiteSpace=wrap;html=1;rounded=0;fontColor=#E4FDE1;strokeColor=#028090;fillColor=#F45B69;sketch=0;" parent="cnh2NbTqDvx0SDtHo7SD-1" vertex="1">
          <mxGeometry x="365" y="730" width="120" height="60" as="geometry" />
        </mxCell>
      </root>
    </mxGraphModel>
  </diagram>
  <diagram id="FttpYedwaDxRV9TZAueA" name="Checkpoint-Detailed-TurnPlayer">
    <mxGraphModel dx="2035" dy="635" grid="1" gridSize="10" guides="1" tooltips="1" connect="1" arrows="1" fold="1" page="1" pageScale="1" pageWidth="850" pageHeight="1100" background="#283618" math="0" shadow="0">
      <root>
        <mxCell id="EYRNuwx6sj7EWlMIYKQJ-0" />
        <mxCell id="EYRNuwx6sj7EWlMIYKQJ-1" parent="EYRNuwx6sj7EWlMIYKQJ-0" />
        <mxCell id="EYRNuwx6sj7EWlMIYKQJ-4" value="" style="edgeStyle=orthogonalEdgeStyle;curved=0;rounded=1;sketch=0;orthogonalLoop=1;jettySize=auto;html=1;fontColor=#FEFAE0;strokeColor=#DDA15E;fillColor=#BC6C25;" parent="EYRNuwx6sj7EWlMIYKQJ-1" source="EYRNuwx6sj7EWlMIYKQJ-2" target="EYRNuwx6sj7EWlMIYKQJ-3" edge="1">
          <mxGeometry relative="1" as="geometry" />
        </mxCell>
        <mxCell id="EYRNuwx6sj7EWlMIYKQJ-2" value="Start" style="rounded=0;whiteSpace=wrap;html=1;sketch=0;fontColor=#FEFAE0;strokeColor=#DDA15E;fillColor=#BC6C25;" parent="EYRNuwx6sj7EWlMIYKQJ-1" vertex="1">
          <mxGeometry x="360" y="100" width="120" height="60" as="geometry" />
        </mxCell>
        <mxCell id="EYRNuwx6sj7EWlMIYKQJ-8" value="" style="edgeStyle=orthogonalEdgeStyle;curved=0;rounded=1;sketch=0;orthogonalLoop=1;jettySize=auto;html=1;fontColor=#FEFAE0;strokeColor=#DDA15E;fillColor=#BC6C25;" parent="EYRNuwx6sj7EWlMIYKQJ-1" source="EYRNuwx6sj7EWlMIYKQJ-3" target="EYRNuwx6sj7EWlMIYKQJ-7" edge="1">
          <mxGeometry relative="1" as="geometry" />
        </mxCell>
        <mxCell id="EYRNuwx6sj7EWlMIYKQJ-3" value="Process all confirmative Rules Processing" style="rounded=0;whiteSpace=wrap;html=1;sketch=0;fontColor=#FEFAE0;strokeColor=#DDA15E;fillColor=#BC6C25;" parent="EYRNuwx6sj7EWlMIYKQJ-1" vertex="1">
          <mxGeometry x="360" y="240" width="120" height="60" as="geometry" />
        </mxCell>
        <mxCell id="EYRNuwx6sj7EWlMIYKQJ-10" value="" style="edgeStyle=orthogonalEdgeStyle;curved=0;rounded=1;sketch=0;orthogonalLoop=1;jettySize=auto;html=1;fontColor=#FEFAE0;strokeColor=#DDA15E;fillColor=#BC6C25;" parent="EYRNuwx6sj7EWlMIYKQJ-1" source="EYRNuwx6sj7EWlMIYKQJ-7" target="EYRNuwx6sj7EWlMIYKQJ-9" edge="1">
          <mxGeometry relative="1" as="geometry" />
        </mxCell>
        <mxCell id="EYRNuwx6sj7EWlMIYKQJ-11" value="Yes" style="edgeLabel;html=1;align=center;verticalAlign=middle;resizable=0;points=[];labelBackgroundColor=none;fontColor=#66FF66;" parent="EYRNuwx6sj7EWlMIYKQJ-10" vertex="1" connectable="0">
          <mxGeometry x="-0.7335" y="3" relative="1" as="geometry">
            <mxPoint y="-7" as="offset" />
          </mxGeometry>
        </mxCell>
        <mxCell id="BH5rsp91wqA0aSOB4sPM-6" style="edgeStyle=orthogonalEdgeStyle;rounded=0;orthogonalLoop=1;jettySize=auto;html=1;exitX=0.5;exitY=1;exitDx=0;exitDy=0;" edge="1" parent="EYRNuwx6sj7EWlMIYKQJ-1" source="EYRNuwx6sj7EWlMIYKQJ-7">
          <mxGeometry relative="1" as="geometry">
            <mxPoint x="420" y="530" as="targetPoint" />
          </mxGeometry>
        </mxCell>
        <mxCell id="BH5rsp91wqA0aSOB4sPM-10" value="No" style="edgeStyle=orthogonalEdgeStyle;rounded=1;orthogonalLoop=1;jettySize=auto;html=1;labelBackgroundColor=none;fontColor=#FF3333;strokeColor=#FFB570;" edge="1" parent="EYRNuwx6sj7EWlMIYKQJ-1" source="EYRNuwx6sj7EWlMIYKQJ-7" target="BH5rsp91wqA0aSOB4sPM-9">
          <mxGeometry x="-0.5" y="-10" relative="1" as="geometry">
            <mxPoint as="offset" />
          </mxGeometry>
        </mxCell>
        <mxCell id="EYRNuwx6sj7EWlMIYKQJ-7" value="Is the turn player the master of any cards who have effects in pending?" style="rhombus;whiteSpace=wrap;html=1;rounded=0;fontColor=#FEFAE0;strokeColor=#DDA15E;fillColor=#BC6C25;sketch=0;" parent="EYRNuwx6sj7EWlMIYKQJ-1" vertex="1">
          <mxGeometry x="340" y="370" width="160" height="160" as="geometry" />
        </mxCell>
        <mxCell id="EYRNuwx6sj7EWlMIYKQJ-13" value="" style="edgeStyle=orthogonalEdgeStyle;curved=0;rounded=1;sketch=0;orthogonalLoop=1;jettySize=auto;html=1;fontColor=#66FF66;strokeColor=#DDA15E;fillColor=#BC6C25;" parent="EYRNuwx6sj7EWlMIYKQJ-1" source="EYRNuwx6sj7EWlMIYKQJ-9" target="EYRNuwx6sj7EWlMIYKQJ-12" edge="1">
          <mxGeometry relative="1" as="geometry" />
        </mxCell>
        <mxCell id="EYRNuwx6sj7EWlMIYKQJ-9" value="Turn Player Picks a Pending [Auto]" style="whiteSpace=wrap;html=1;rounded=0;fontColor=#FEFAE0;strokeColor=#DDA15E;fillColor=#BC6C25;sketch=0;" parent="EYRNuwx6sj7EWlMIYKQJ-1" vertex="1">
          <mxGeometry x="530" y="640" width="120" height="60" as="geometry" />
        </mxCell>
        <mxCell id="EYRNuwx6sj7EWlMIYKQJ-17" value="" style="edgeStyle=orthogonalEdgeStyle;curved=0;rounded=1;sketch=0;orthogonalLoop=1;jettySize=auto;html=1;fontColor=#66FF66;strokeColor=#DDA15E;fillColor=#BC6C25;" parent="EYRNuwx6sj7EWlMIYKQJ-1" source="EYRNuwx6sj7EWlMIYKQJ-12" target="EYRNuwx6sj7EWlMIYKQJ-16" edge="1">
          <mxGeometry relative="1" as="geometry" />
        </mxCell>
        <mxCell id="EYRNuwx6sj7EWlMIYKQJ-18" style="edgeStyle=orthogonalEdgeStyle;curved=0;rounded=1;sketch=0;orthogonalLoop=1;jettySize=auto;html=1;exitX=0.5;exitY=1;exitDx=0;exitDy=0;entryX=-0.002;entryY=0.512;entryDx=0;entryDy=0;entryPerimeter=0;fontColor=#66FF66;strokeColor=#DDA15E;fillColor=#BC6C25;dashed=1;dashPattern=1 4;" parent="EYRNuwx6sj7EWlMIYKQJ-1" source="EYRNuwx6sj7EWlMIYKQJ-21" target="EYRNuwx6sj7EWlMIYKQJ-14" edge="1">
          <mxGeometry relative="1" as="geometry" />
        </mxCell>
        <mxCell id="EYRNuwx6sj7EWlMIYKQJ-12" value="Master Pays Cost of skill" style="whiteSpace=wrap;html=1;rounded=0;fontColor=#FEFAE0;strokeColor=#DDA15E;fillColor=#BC6C25;sketch=0;" parent="EYRNuwx6sj7EWlMIYKQJ-1" vertex="1">
          <mxGeometry x="530" y="780" width="120" height="60" as="geometry" />
        </mxCell>
        <mxCell id="EYRNuwx6sj7EWlMIYKQJ-14" value="&lt;font color=&quot;#ffffff&quot;&gt;Any Triggers from skill &lt;br&gt;go into currently pending&lt;/font&gt;" style="html=1;shadow=0;dashed=0;align=center;verticalAlign=middle;shape=mxgraph.arrows2.calloutArrow;dy=10;dx=20;notch=183.57;arrowHead=10;rounded=0;labelBackgroundColor=none;sketch=0;fontColor=#66FF66;strokeColor=#DDA15E;fillColor=#BC6C25;" parent="EYRNuwx6sj7EWlMIYKQJ-1" vertex="1">
          <mxGeometry x="710" y="1290" width="210" height="60" as="geometry" />
        </mxCell>
        <mxCell id="EYRNuwx6sj7EWlMIYKQJ-20" value="Yes" style="edgeStyle=orthogonalEdgeStyle;curved=0;rounded=1;sketch=0;orthogonalLoop=1;jettySize=auto;html=1;fontColor=#66FF66;strokeColor=#DDA15E;fillColor=#BC6C25;labelBackgroundColor=none;" parent="EYRNuwx6sj7EWlMIYKQJ-1" source="EYRNuwx6sj7EWlMIYKQJ-16" target="EYRNuwx6sj7EWlMIYKQJ-19" edge="1">
          <mxGeometry x="-0.5606" y="10" relative="1" as="geometry">
            <mxPoint as="offset" />
          </mxGeometry>
        </mxCell>
        <mxCell id="EYRNuwx6sj7EWlMIYKQJ-23" value="No" style="edgeStyle=orthogonalEdgeStyle;curved=0;rounded=1;sketch=0;orthogonalLoop=1;jettySize=auto;html=1;entryX=0;entryY=0.5;entryDx=0;entryDy=0;labelBackgroundColor=none;fontColor=#FF3333;strokeColor=#DDA15E;fillColor=#BC6C25;" parent="EYRNuwx6sj7EWlMIYKQJ-1" source="EYRNuwx6sj7EWlMIYKQJ-16" target="EYRNuwx6sj7EWlMIYKQJ-21" edge="1">
          <mxGeometry x="-0.8899" y="-10" relative="1" as="geometry">
            <Array as="points">
              <mxPoint x="430" y="990" />
              <mxPoint x="430" y="1270" />
            </Array>
            <mxPoint as="offset" />
          </mxGeometry>
        </mxCell>
        <mxCell id="EYRNuwx6sj7EWlMIYKQJ-16" value="Does the skill have the option to &quot;Play&quot; a card?" style="rhombus;whiteSpace=wrap;html=1;fontFamily=Helvetica;fontSize=12;fontColor=#FEFAE0;align=center;strokeColor=#DDA15E;fillColor=#BC6C25;sketch=0;" parent="EYRNuwx6sj7EWlMIYKQJ-1" vertex="1">
          <mxGeometry x="505" y="940" width="170" height="100" as="geometry" />
        </mxCell>
        <mxCell id="EYRNuwx6sj7EWlMIYKQJ-22" value="" style="edgeStyle=orthogonalEdgeStyle;curved=0;rounded=1;sketch=0;orthogonalLoop=1;jettySize=auto;html=1;labelBackgroundColor=none;fontColor=#66FF66;strokeColor=#DDA15E;fillColor=#BC6C25;" parent="EYRNuwx6sj7EWlMIYKQJ-1" source="EYRNuwx6sj7EWlMIYKQJ-19" target="EYRNuwx6sj7EWlMIYKQJ-21" edge="1">
          <mxGeometry relative="1" as="geometry">
            <Array as="points">
              <mxPoint x="740" y="1270" />
            </Array>
          </mxGeometry>
        </mxCell>
        <mxCell id="EYRNuwx6sj7EWlMIYKQJ-19" value="Counter: Play" style="whiteSpace=wrap;html=1;fontColor=#FEFAE0;strokeColor=#DDA15E;fillColor=#BC6C25;sketch=0;" parent="EYRNuwx6sj7EWlMIYKQJ-1" vertex="1">
          <mxGeometry x="680" y="1090" width="120" height="60" as="geometry" />
        </mxCell>
        <mxCell id="EYRNuwx6sj7EWlMIYKQJ-27" value="" style="edgeStyle=orthogonalEdgeStyle;curved=0;rounded=1;sketch=0;orthogonalLoop=1;jettySize=auto;html=1;labelBackgroundColor=none;fontColor=#66FF66;strokeColor=#DDA15E;fillColor=#BC6C25;" parent="EYRNuwx6sj7EWlMIYKQJ-1" source="EYRNuwx6sj7EWlMIYKQJ-21" target="EYRNuwx6sj7EWlMIYKQJ-26" edge="1">
          <mxGeometry relative="1" as="geometry" />
        </mxCell>
        <mxCell id="EYRNuwx6sj7EWlMIYKQJ-21" value="Resolve Skill" style="whiteSpace=wrap;html=1;fontColor=#FEFAE0;strokeColor=#DDA15E;fillColor=#BC6C25;sketch=0;" parent="EYRNuwx6sj7EWlMIYKQJ-1" vertex="1">
          <mxGeometry x="530" y="1240" width="120" height="60" as="geometry" />
        </mxCell>
        <mxCell id="EYRNuwx6sj7EWlMIYKQJ-29" value="Yes" style="edgeStyle=orthogonalEdgeStyle;curved=0;rounded=1;sketch=0;orthogonalLoop=1;jettySize=auto;html=1;labelBackgroundColor=none;fontColor=#66FF66;strokeColor=#DDA15E;fillColor=#BC6C25;exitX=1;exitY=0.5;exitDx=0;exitDy=0;" parent="EYRNuwx6sj7EWlMIYKQJ-1" source="EYRNuwx6sj7EWlMIYKQJ-26" target="EYRNuwx6sj7EWlMIYKQJ-28" edge="1">
          <mxGeometry x="-0.6843" y="10" relative="1" as="geometry">
            <mxPoint as="offset" />
          </mxGeometry>
        </mxCell>
        <mxCell id="BH5rsp91wqA0aSOB4sPM-8" value="No" style="edgeStyle=orthogonalEdgeStyle;rounded=1;orthogonalLoop=1;jettySize=auto;html=1;exitX=0.5;exitY=1;exitDx=0;exitDy=0;strokeColor=#FFB570;fontColor=#FF3333;labelBackgroundColor=none;" edge="1" parent="EYRNuwx6sj7EWlMIYKQJ-1" source="EYRNuwx6sj7EWlMIYKQJ-26">
          <mxGeometry x="-0.8763" y="20" relative="1" as="geometry">
            <mxPoint x="1120" y="1380" as="targetPoint" />
            <Array as="points">
              <mxPoint x="590" y="1660" />
              <mxPoint x="1120" y="1660" />
              <mxPoint x="1120" y="1390" />
            </Array>
            <mxPoint as="offset" />
          </mxGeometry>
        </mxCell>
        <mxCell id="EYRNuwx6sj7EWlMIYKQJ-26" value="&lt;span&gt;Did you play a card?&lt;/span&gt;" style="rhombus;whiteSpace=wrap;html=1;fontColor=#FEFAE0;strokeColor=#DDA15E;fillColor=#BC6C25;sketch=0;" parent="EYRNuwx6sj7EWlMIYKQJ-1" vertex="1">
          <mxGeometry x="510" y="1340" width="160" height="160" as="geometry" />
        </mxCell>
        <mxCell id="BH5rsp91wqA0aSOB4sPM-7" style="edgeStyle=orthogonalEdgeStyle;rounded=1;orthogonalLoop=1;jettySize=auto;html=1;entryX=1;entryY=0.5;entryDx=0;entryDy=0;strokeColor=#FFB570;" edge="1" parent="EYRNuwx6sj7EWlMIYKQJ-1" source="EYRNuwx6sj7EWlMIYKQJ-28" target="EYRNuwx6sj7EWlMIYKQJ-3">
          <mxGeometry relative="1" as="geometry">
            <Array as="points">
              <mxPoint x="1120" y="1420" />
              <mxPoint x="1120" y="270" />
            </Array>
          </mxGeometry>
        </mxCell>
        <mxCell id="EYRNuwx6sj7EWlMIYKQJ-28" value="Counter: Play" style="whiteSpace=wrap;html=1;fontColor=#FEFAE0;strokeColor=#DDA15E;fillColor=#BC6C25;sketch=0;" parent="EYRNuwx6sj7EWlMIYKQJ-1" vertex="1">
          <mxGeometry x="750" y="1390" width="120" height="60" as="geometry" />
        </mxCell>
        <mxCell id="BH5rsp91wqA0aSOB4sPM-0" style="edgeStyle=orthogonalEdgeStyle;curved=0;rounded=1;sketch=0;orthogonalLoop=1;jettySize=auto;html=1;exitX=0.5;exitY=1;exitDx=0;exitDy=0;entryX=-0.002;entryY=0.512;entryDx=0;entryDy=0;entryPerimeter=0;fontColor=#66FF66;strokeColor=#DDA15E;fillColor=#BC6C25;dashed=1;dashPattern=1 4;" edge="1" parent="EYRNuwx6sj7EWlMIYKQJ-1" target="BH5rsp91wqA0aSOB4sPM-1" source="EYRNuwx6sj7EWlMIYKQJ-12">
          <mxGeometry relative="1" as="geometry">
            <mxPoint x="510" y="830" as="sourcePoint" />
          </mxGeometry>
        </mxCell>
        <mxCell id="BH5rsp91wqA0aSOB4sPM-1" value="&lt;font color=&quot;#ffffff&quot;&gt;Any Triggers from paying the cost skill &lt;br&gt;go into currently pending&lt;/font&gt;" style="html=1;shadow=0;dashed=0;align=center;verticalAlign=middle;shape=mxgraph.arrows2.calloutArrow;dy=12;dx=26;notch=187;arrowHead=14;rounded=0;labelBackgroundColor=none;sketch=0;fontColor=#66FF66;strokeColor=#DDA15E;fillColor=#BC6C25;" vertex="1" parent="EYRNuwx6sj7EWlMIYKQJ-1">
          <mxGeometry x="710" y="860" width="230" height="60" as="geometry" />
        </mxCell>
        <mxCell id="BH5rsp91wqA0aSOB4sPM-2" style="edgeStyle=orthogonalEdgeStyle;curved=0;rounded=1;sketch=0;orthogonalLoop=1;jettySize=auto;html=1;exitX=0.5;exitY=1;exitDx=0;exitDy=0;entryX=-0.002;entryY=0.512;entryDx=0;entryDy=0;entryPerimeter=0;fontColor=#66FF66;strokeColor=#DDA15E;fillColor=#BC6C25;dashed=1;dashPattern=1 4;" edge="1" parent="EYRNuwx6sj7EWlMIYKQJ-1" target="BH5rsp91wqA0aSOB4sPM-3" source="EYRNuwx6sj7EWlMIYKQJ-19">
          <mxGeometry relative="1" as="geometry">
            <mxPoint x="820" y="1110" as="sourcePoint" />
          </mxGeometry>
        </mxCell>
        <mxCell id="BH5rsp91wqA0aSOB4sPM-3" value="&lt;font color=&quot;#ffffff&quot;&gt;Any Triggers from Counter Window&lt;br&gt;go into currently pending&lt;/font&gt;" style="html=1;shadow=0;dashed=0;align=center;verticalAlign=middle;shape=mxgraph.arrows2.calloutArrow;dy=10;dx=20;notch=229;arrowHead=10;rounded=0;labelBackgroundColor=none;sketch=0;fontColor=#66FF66;strokeColor=#DDA15E;fillColor=#BC6C25;" vertex="1" parent="EYRNuwx6sj7EWlMIYKQJ-1">
          <mxGeometry x="820" y="1140" width="260" height="60" as="geometry" />
        </mxCell>
        <mxCell id="BH5rsp91wqA0aSOB4sPM-4" style="edgeStyle=orthogonalEdgeStyle;curved=0;rounded=1;sketch=0;orthogonalLoop=1;jettySize=auto;html=1;entryX=0;entryY=0;entryDx=114.5;entryDy=0;entryPerimeter=0;fontColor=#66FF66;strokeColor=#DDA15E;fillColor=#BC6C25;dashed=1;dashPattern=1 4;exitX=1;exitY=0.5;exitDx=0;exitDy=0;" edge="1" parent="EYRNuwx6sj7EWlMIYKQJ-1" target="BH5rsp91wqA0aSOB4sPM-5" source="EYRNuwx6sj7EWlMIYKQJ-28">
          <mxGeometry relative="1" as="geometry">
            <mxPoint x="600" y="1630" as="sourcePoint" />
            <Array as="points">
              <mxPoint x="915" y="1420" />
              <mxPoint x="915" y="1480" />
            </Array>
          </mxGeometry>
        </mxCell>
        <mxCell id="BH5rsp91wqA0aSOB4sPM-5" value="&lt;font color=&quot;#ffffff&quot;&gt;Any Triggers from Counter Window&lt;br&gt;go into currently pending&lt;/font&gt;" style="html=1;shadow=0;dashed=0;align=center;verticalAlign=middle;shape=mxgraph.arrows2.calloutArrow;dy=10;dx=20;notch=229;arrowHead=10;rounded=0;labelBackgroundColor=none;sketch=0;fontColor=#66FF66;strokeColor=#DDA15E;fillColor=#BC6C25;" vertex="1" parent="EYRNuwx6sj7EWlMIYKQJ-1">
          <mxGeometry x="800" y="1480" width="260" height="60" as="geometry" />
        </mxCell>
        <mxCell id="BH5rsp91wqA0aSOB4sPM-12" value="Yes" style="edgeStyle=orthogonalEdgeStyle;rounded=1;orthogonalLoop=1;jettySize=auto;html=1;labelBackgroundColor=none;fontColor=#99FF33;strokeColor=#FFB570;" edge="1" parent="EYRNuwx6sj7EWlMIYKQJ-1" source="BH5rsp91wqA0aSOB4sPM-9" target="BH5rsp91wqA0aSOB4sPM-11">
          <mxGeometry x="-0.6364" y="20" relative="1" as="geometry">
            <mxPoint as="offset" />
          </mxGeometry>
        </mxCell>
        <mxCell id="BH5rsp91wqA0aSOB4sPM-14" value="No" style="edgeStyle=orthogonalEdgeStyle;rounded=1;orthogonalLoop=1;jettySize=auto;html=1;labelBackgroundColor=none;fontColor=#FF3333;strokeColor=#FFB570;" edge="1" parent="EYRNuwx6sj7EWlMIYKQJ-1" source="BH5rsp91wqA0aSOB4sPM-9" target="BH5rsp91wqA0aSOB4sPM-13">
          <mxGeometry x="-0.6" y="-10" relative="1" as="geometry">
            <mxPoint as="offset" />
          </mxGeometry>
        </mxCell>
        <mxCell id="BH5rsp91wqA0aSOB4sPM-9" value="Is the non-turn player the master of any cards who have effects in pending?" style="rhombus;whiteSpace=wrap;html=1;rounded=0;fontColor=#FEFAE0;strokeColor=#DDA15E;fillColor=#BC6C25;sketch=0;" vertex="1" parent="EYRNuwx6sj7EWlMIYKQJ-1">
          <mxGeometry x="100" y="370" width="160" height="160" as="geometry" />
        </mxCell>
        <mxCell id="BH5rsp91wqA0aSOB4sPM-15" style="edgeStyle=orthogonalEdgeStyle;rounded=1;orthogonalLoop=1;jettySize=auto;html=1;entryX=0;entryY=0.5;entryDx=0;entryDy=0;labelBackgroundColor=none;fontColor=#99FF33;strokeColor=#FFB570;exitX=0.5;exitY=1;exitDx=0;exitDy=0;" edge="1" parent="EYRNuwx6sj7EWlMIYKQJ-1" source="BH5rsp91wqA0aSOB4sPM-11" target="EYRNuwx6sj7EWlMIYKQJ-12">
          <mxGeometry relative="1" as="geometry">
            <mxPoint x="180" y="710" as="sourcePoint" />
          </mxGeometry>
        </mxCell>
        <mxCell id="BH5rsp91wqA0aSOB4sPM-11" value="Turn Player Picks a Pending [Auto]" style="whiteSpace=wrap;html=1;rounded=0;fontColor=#FEFAE0;strokeColor=#DDA15E;fillColor=#BC6C25;sketch=0;" vertex="1" parent="EYRNuwx6sj7EWlMIYKQJ-1">
          <mxGeometry x="120" y="640" width="120" height="60" as="geometry" />
        </mxCell>
        <mxCell id="BH5rsp91wqA0aSOB4sPM-13" value="End Checkpoint" style="triangle;whiteSpace=wrap;html=1;fontColor=#FEFAE0;rounded=0;strokeColor=#DDA15E;fillColor=#BC6C25;sketch=0;rotation=0;direction=west;" vertex="1" parent="EYRNuwx6sj7EWlMIYKQJ-1">
          <mxGeometry x="-70" y="405" width="110" height="90" as="geometry" />
        </mxCell>
      </root>
    </mxGraphModel>
  </diagram>
</mxfile>
